<?xml version="1.0" standalone="no"?><!DOCTYPE svg PUBLIC "-//W3C//DTD SVG 1.1//EN" "http://www.w3.org/Graphics/SVG/1.1/DTD/svg11.dtd"><svg t="1583904670215" class="icon" viewBox="0 0 1024 1024" version="1.1" xmlns="http://www.w3.org/2000/svg" p-id="2141" xmlns:xlink="http://www.w3.org/1999/xlink" width="200" height="200"><defs><style type="text/css"></style></defs><path d="M0.003 3.885h1020.115V1024H0.003z" fill="#9FFFF7" p-id="2142"></path><path d="M795.175 676.225c1.096 25.9-24.108 35.763-57.382 35.763-33.372 0-64.952-6.973-63.358-35.763 1.594-27.595 32.675-50.11 60.37-50.11 30.982 0.1 59.174 22.515 60.37 50.11z m-408.444 0c1.095 25.9-24.109 35.763-57.382 35.763s-64.953-6.973-63.359-35.763c1.594-27.595 32.676-50.11 60.37-50.11 30.982 0.1 59.175 22.515 60.37 50.11z" fill="#4DECE1" p-id="2143"></path><path d="M769.274 687.282c10.26-26.897 11.954-60.07 5.877-99.52-1.394-9.166-3.387-18.231-5.877-27.097-2.89-33.074-19.725-175.432-102.211-246.262 0 0-24.706 50.408-42.937 93.444-18.629-5.878-38.254-8.966-58.477-8.966-20.322 0-39.649 3.188-57.78 9.065-18.33-43.036-43.036-93.543-43.036-93.543-89.06 76.508-101.613 236.798-102.61 252.04-2.29 6.973-4.382 14.146-6.076 21.318-8.966 36.362-9.364 70.532 2.092 99.521h411.035z" fill="#4DECE1" p-id="2144"></path><path d="M714.681 658.392c10.261-26.897 11.955-60.07 5.878-99.52-1.395-9.166-3.387-18.231-5.878-27.097-2.889-33.074-19.724-175.432-102.21-246.262 0 0-24.706 50.408-42.937 93.444-18.629-5.878-38.254-8.966-58.477-8.966-20.323 0-39.649 3.188-57.78 9.065-18.33-43.036-43.036-93.543-43.036-93.543-89.06 76.508-101.613 236.798-102.61 252.04-2.29 6.973-4.383 14.146-6.076 21.318-8.966 36.362-9.364 70.532 2.092 99.521h411.034z" fill="#FFFFFF" p-id="2145"></path><path d="M714.681 663.373H303.647a4.86 4.86 0 0 1-4.583-3.187c-11.257-28.492-12.054-63.06-2.29-102.61 1.792-7.073 3.785-14.146 5.976-21.02 1.395-20.82 14.943-178.121 104.303-254.829 1.196-0.996 2.69-1.395 4.284-1.096a5.026 5.026 0 0 1 3.487 2.69c0.199 0.498 23.41 47.917 41.342 89.658 17.733-5.28 36.162-7.97 54.99-7.97 18.829 0 37.458 2.69 55.689 7.97 17.931-41.74 41.143-89.06 41.342-89.558a5.026 5.026 0 0 1 3.487-2.69 5.154 5.154 0 0 1 4.283 1.096c35.565 30.583 63.36 77.604 82.287 139.568 14.844 48.515 19.924 92.448 21.419 109.483 2.49 8.966 4.482 18.131 5.877 27.296 6.276 41.243 4.284 74.616-6.176 102.111-0.698 1.893-2.59 3.088-4.683 3.088z m-407.547-9.962h404.06c8.767-25.204 10.262-55.986 4.484-93.842-1.395-8.866-3.288-17.733-5.679-26.3-0.1-0.398-0.199-0.697-0.199-1.096-1.395-16.437-6.276-59.872-21.02-107.889-17.533-57.282-42.637-101.115-74.516-130.603-7.073 14.545-25.603 53.397-40.048 87.268-0.996 2.391-3.586 3.586-6.076 2.79-18.53-5.778-37.757-8.767-56.983-8.767-19.227 0-38.155 2.989-56.186 8.866-2.49 0.797-5.081-0.398-6.077-2.79-14.445-33.87-32.975-72.822-40.048-87.367-34.17 31.48-60.37 79.298-77.903 142.259-14.246 50.906-17.533 93.942-18.13 102.011 0 0.399-0.1 0.797-0.2 1.196-2.192 6.873-4.284 13.847-5.977 20.92-9.066 36.063-8.867 67.443 0.498 93.344z" fill="#6B3437" p-id="2146"></path><path d="M802.945 660.186H217.077c-2.79 0-4.981-2.192-4.981-4.981s2.191-4.981 4.98-4.981h585.77c2.79 0 4.98 2.191 4.98 4.98s-2.091 4.982-4.88 4.982z" fill="#6B3437" p-id="2147"></path><path d="M408.946 293.98s-27.197 126.817-30.584 168.758c80.295-47.52 110.18-7.273 30.584-168.758z m204.82 0s27.196 126.817 30.583 168.758c-80.393-47.52-110.877-6.376-30.583-168.758zM507.37 535.86h0.996-0.996z m0 0" fill="#FEAE02" p-id="2148"></path><path d="M514.145 374.773c-110.18 0-223.15 106.096-223.15 219.962 0 27.097 5.977 52.002 16.537 74.217l-4.98-24.208s24.107-93.543 88.263-121.636a57.55 57.55 0 0 1-6.077-25.802c0-31.978 25.901-57.98 57.98-57.98 30.184 0 54.99 23.113 57.68 52.6h18.928c2.69-29.487 27.495-52.6 57.68-52.6 31.978 0 57.979 25.902 57.979 57.98a57.966 57.966 0 0 1-5.977 25.602c59.274 31.38 86.271 99.322 86.271 99.322 0.698-5.479 0.399-19.127 0.698-24.805 3.785-108.587-91.751-222.652-201.832-222.652z" fill="#FEAE02" p-id="2149"></path><path d="M442.817 526.096h-4.682a8.248 8.248 0 0 1-8.269-8.268V488.44a8.248 8.248 0 0 1 8.269-8.269h4.682a8.248 8.248 0 0 1 8.268 8.269v29.388a8.248 8.248 0 0 1-8.268 8.268z m138.074 0h-4.682a8.248 8.248 0 0 1-8.269-8.268V488.44a8.248 8.248 0 0 1 8.269-8.269h4.682a8.248 8.248 0 0 1 8.269 8.269v29.388a8.248 8.248 0 0 1-8.269 8.268z m-83.78 31.58h30.085c4.781 0 7.471 5.678 4.283 9.265l-15.341 14.843c-2.292 2.59-6.376 2.59-8.568 0l-14.644-14.744c-3.188-3.785-0.598-9.364 4.184-9.364z" p-id="2150"></path><path d="M491.531 607.885c-10.958 0-20.92-13.35-23.012-25.403-0.299-1.594 0.797-3.188 2.49-3.487 1.594-0.299 3.188 0.797 3.487 2.49 1.793 10.46 10.062 20.323 17.035 20.323 3.188 0 7.472-2.39 10.859-5.977 3.885-4.085 6.177-9.165 6.177-13.848 0-1.693 1.394-2.988 2.988-2.988 1.694 0 2.989 1.395 2.989 2.988 0 13.35-12.95 25.902-23.013 25.902z" p-id="2151"></path><path d="M531.38 607.885c-10.959 0-20.92-13.35-23.013-25.403-0.299-1.594 0.797-3.188 2.49-3.487 1.595-0.299 3.189 0.797 3.487 2.49 1.794 10.46 10.062 20.323 17.036 20.323 3.187 0 7.471-2.39 10.858-5.977 3.885-4.085 6.177-9.165 6.177-13.848 0-1.693 1.394-2.988 2.988-2.988s2.989 1.395 2.989 2.988c0 13.35-12.95 25.902-23.012 25.902z" p-id="2152"></path><path d="M371.688 651.22c1.096 25.901-24.108 35.764-57.382 35.764s-64.952-6.974-63.358-35.764c1.594-27.595 32.675-50.11 60.37-50.11 30.982 0 59.174 22.415 60.37 50.11z" fill="#FFFFFF" p-id="2153"></path><path d="M314.207 691.865c-29.886 0-49.412-5.38-59.972-16.537-6.077-6.475-8.966-14.644-8.368-24.507 0.797-14.445 8.667-28.292 22.215-39.051 12.652-10.062 28.392-15.74 43.136-15.74 34.17 0 64.056 25.104 65.351 54.791 0.399 9.962-2.59 18.43-8.866 25.005-10.062 10.76-28.093 16.039-53.496 16.039z m-2.89-85.773c-29.786 0-54.292 24.407-55.388 45.327-0.399 7.073 1.494 12.652 5.678 17.035 8.368 8.866 26.1 13.35 52.7 13.35 22.314 0 38.254-4.484 46.323-12.852 4.383-4.582 6.475-10.46 6.077-17.633-1.096-24.506-26.5-45.227-55.39-45.227z" fill="#6B3437" p-id="2154"></path><path d="M364.814 650.224c-0.498-6.277-2.79-13.549-7.173-19.725 0.498 2.092 0.797 4.184 0.797 6.375 0.996 22.714-15.341 30.484-44.63 30.484-29.189 0-50.707-5.778-49.312-30.982 0.1-1.693 0.1-3.188 0.498-4.881-3.387 4.98-6.276 10.46-7.173 17.234-3.287 26.898 24.507 33.572 55.987 33.074 31.68-0.398 52.899-8.268 51.006-31.58z" fill="#F1E8E3" p-id="2155"></path><path d="M780.033 649.427c1.095 25.9-24.109 35.763-57.382 35.763-33.373 0-64.952-6.973-63.359-35.763 1.594-27.595 32.676-50.11 60.37-50.11 31.082 0.1 59.175 22.515 60.37 50.11z" fill="#FFFFFF" p-id="2156"></path><path d="M722.651 690.171c-29.886 0-49.412-5.38-59.971-16.537-6.077-6.475-8.966-14.644-8.369-24.506 0.797-14.445 8.667-28.293 22.216-39.052 12.652-10.061 28.392-15.74 43.136-15.74 34.17 0 64.056 25.105 65.35 54.792 0.4 9.962-2.59 18.43-8.866 25.005-10.061 10.659-28.093 16.038-53.496 16.038z m-2.988-85.773c-29.787 0-54.294 24.407-55.39 45.327-0.398 7.074 1.495 12.652 5.679 17.036 8.368 8.866 26.1 13.349 52.7 13.349 22.314 0 38.253-4.483 46.323-12.851 4.383-4.583 6.475-10.46 6.077-17.633-0.997-24.507-26.4-45.228-55.39-45.228z" fill="#6B3437" p-id="2157"></path><path d="M773.856 647.633c-0.498-6.375-2.889-13.747-7.372-20.023 0.498 2.092 0.797 4.283 0.897 6.475 0.996 23.112-15.64 30.982-45.328 30.982s-51.603-5.878-50.109-31.48c0.1-1.793 0.1-3.288 0.498-4.981-3.387 4.98-6.375 10.66-7.272 17.433-3.387 27.297 24.905 34.17 56.983 33.672s53.696-8.467 51.703-32.078z" fill="#F1E8E3" p-id="2158"></path><path d="M408.348 293.98s22.514 41.343 43.335 92.15l-16.736 6.275c0-0.1-3.985-37.855-26.599-98.425z" fill="#E0930A" p-id="2159"></path><path d="M613.766 293.98l-41.243 89.56 9.862 6.973c0 0.1 14.744-48.217 31.38-96.533z" fill="#FEE6A5" p-id="2160"></path><path d="M638.97 424.683s79.995 60.868 80.792 168.657v2.79H702.23c-0.1 0.1-6.974-85.674-63.26-171.447z" fill="#E0930A" p-id="2161"></path></svg>